STARTFONT 2.1
COMMENT
COMMENT Converted from OpenType font "ProggyTiny.ttf" by "otf2bdf 3.0".
COMMENT
FONT -FreeType-ProggyTinyTT-Medium-R-Normal--17-120-100-100-P-42-ISO10646-1
SIZE 12 100 100
FONTBOUNDINGBOX 6 10 0 -2
STARTPROPERTIES 19
FOUNDRY "FreeType"
FAMILY_NAME "ProggyTinyTT"
WEIGHT_NAME "Medium"
SLANT "R"
SETWIDTH_NAME "Normal"
ADD_STYLE_NAME ""
PIXEL_SIZE 17
POINT_SIZE 120
RESOLUTION_X 100
RESOLUTION_Y 100
SPACING "P"
AVERAGE_WIDTH 42
CHARSET_REGISTRY "ISO10646"
CHARSET_ENCODING "1"
FONT_ASCENT 7
FONT_DESCENT 2
COPYRIGHT "by Tristan Grimmer"
_OTF_FONTFILE "ProggyTiny.ttf"
_OTF_PSNAME "ProggyTinyTT"
ENDPROPERTIES
CHARS 256
STARTCHAR 0000
ENCODING 0
SWIDTH 360 0
DWIDTH 6 0
BBX 0 0 0 0
BITMAP
ENDCHAR
STARTCHAR 0001
ENCODING 1
SWIDTH 360 0
DWIDTH 6 0
BBX 0 0 0 0
BITMAP
ENDCHAR
STARTCHAR 0002
ENCODING 2
SWIDTH 360 0
DWIDTH 6 0
BBX 0 0 0 0
BITMAP
ENDCHAR
STARTCHAR 0003
ENCODING 3
SWIDTH 360 0
DWIDTH 6 0
BBX 0 0 0 0
BITMAP
ENDCHAR
STARTCHAR 0004
ENCODING 4
SWIDTH 360 0
DWIDTH 6 0
BBX 0 0 0 0
BITMAP
ENDCHAR
STARTCHAR 0005
ENCODING 5
SWIDTH 360 0
DWIDTH 6 0
BBX 0 0 0 0
BITMAP
ENDCHAR
STARTCHAR 0006
ENCODING 6
SWIDTH 360 0
DWIDTH 6 0
BBX 0 0 0 0
BITMAP
ENDCHAR
STARTCHAR 0007
ENCODING 7
SWIDTH 360 0
DWIDTH 6 0
BBX 0 0 0 0
BITMAP
ENDCHAR
STARTCHAR 0008
ENCODING 8
SWIDTH 360 0
DWIDTH 6 0
BBX 0 0 0 0
BITMAP
ENDCHAR
STARTCHAR 0009
ENCODING 9
SWIDTH 360 0
DWIDTH 6 0
BBX 0 0 0 0
BITMAP
ENDCHAR
STARTCHAR 000A
ENCODING 10
SWIDTH 360 0
DWIDTH 6 0
BBX 0 0 0 0
BITMAP
ENDCHAR
STARTCHAR 000B
ENCODING 11
SWIDTH 360 0
DWIDTH 6 0
BBX 0 0 0 0
BITMAP
ENDCHAR
STARTCHAR 000C
ENCODING 12
SWIDTH 360 0
DWIDTH 6 0
BBX 0 0 0 0
BITMAP
ENDCHAR
STARTCHAR 000D
ENCODING 13
SWIDTH 360 0
DWIDTH 6 0
BBX 0 0 0 0
BITMAP
ENDCHAR
STARTCHAR 000E
ENCODING 14
SWIDTH 360 0
DWIDTH 6 0
BBX 0 0 0 0
BITMAP
ENDCHAR
STARTCHAR 000F
ENCODING 15
SWIDTH 360 0
DWIDTH 6 0
BBX 0 0 0 0
BITMAP
ENDCHAR
STARTCHAR 0010
ENCODING 16
SWIDTH 360 0
DWIDTH 6 0
BBX 0 0 0 0
BITMAP
ENDCHAR
STARTCHAR 0011
ENCODING 17
SWIDTH 360 0
DWIDTH 6 0
BBX 0 0 0 0
BITMAP
ENDCHAR
STARTCHAR 0012
ENCODING 18
SWIDTH 360 0
DWIDTH 6 0
BBX 0 0 0 0
BITMAP
ENDCHAR
STARTCHAR 0013
ENCODING 19
SWIDTH 360 0
DWIDTH 6 0
BBX 0 0 0 0
BITMAP
ENDCHAR
STARTCHAR 0014
ENCODING 20
SWIDTH 360 0
DWIDTH 6 0
BBX 0 0 0 0
BITMAP
ENDCHAR
STARTCHAR 0015
ENCODING 21
SWIDTH 360 0
DWIDTH 6 0
BBX 0 0 0 0
BITMAP
ENDCHAR
STARTCHAR 0016
ENCODING 22
SWIDTH 360 0
DWIDTH 6 0
BBX 0 0 0 0
BITMAP
ENDCHAR
STARTCHAR 0017
ENCODING 23
SWIDTH 360 0
DWIDTH 6 0
BBX 0 0 0 0
BITMAP
ENDCHAR
STARTCHAR 0018
ENCODING 24
SWIDTH 360 0
DWIDTH 6 0
BBX 0 0 0 0
BITMAP
ENDCHAR
STARTCHAR 0019
ENCODING 25
SWIDTH 360 0
DWIDTH 6 0
BBX 0 0 0 0
BITMAP
ENDCHAR
STARTCHAR 001A
ENCODING 26
SWIDTH 360 0
DWIDTH 6 0
BBX 0 0 0 0
BITMAP
ENDCHAR
STARTCHAR 001B
ENCODING 27
SWIDTH 360 0
DWIDTH 6 0
BBX 0 0 0 0
BITMAP
ENDCHAR
STARTCHAR 001C
ENCODING 28
SWIDTH 360 0
DWIDTH 6 0
BBX 0 0 0 0
BITMAP
ENDCHAR
STARTCHAR 001D
ENCODING 29
SWIDTH 360 0
DWIDTH 6 0
BBX 0 0 0 0
BITMAP
ENDCHAR
STARTCHAR 001E
ENCODING 30
SWIDTH 360 0
DWIDTH 6 0
BBX 0 0 0 0
BITMAP
ENDCHAR
STARTCHAR 001F
ENCODING 31
SWIDTH 360 0
DWIDTH 6 0
BBX 0 0 0 0
BITMAP
ENDCHAR
STARTCHAR 0020
ENCODING 32
SWIDTH 360 0
DWIDTH 6 0
BBX 0 0 0 0
BITMAP
ENDCHAR
STARTCHAR 0021
ENCODING 33
SWIDTH 360 0
DWIDTH 6 0
BBX 1 7 2 0
BITMAP
80
80
80
80
80
00
80
ENDCHAR
STARTCHAR 0022
ENCODING 34
SWIDTH 360 0
DWIDTH 6 0
BBX 3 3 1 5
BITMAP
A0
A0
A0
ENDCHAR
STARTCHAR 0023
ENCODING 35
SWIDTH 360 0
DWIDTH 6 0
BBX 5 6 0 0
BITMAP
50
F8
50
50
F8
50
ENDCHAR
STARTCHAR 0024
ENCODING 36
SWIDTH 360 0
DWIDTH 6 0
BBX 5 7 0 0
BITMAP
20
78
A0
70
28
F0
20
ENDCHAR
STARTCHAR 0025
ENCODING 37
SWIDTH 360 0
DWIDTH 6 0
BBX 6 6 0 0
BITMAP
44
A8
50
28
54
88
ENDCHAR
STARTCHAR 0026
ENCODING 38
SWIDTH 360 0
DWIDTH 6 0
BBX 6 7 0 0
BITMAP
60
90
90
60
94
88
74
ENDCHAR
STARTCHAR 0027
ENCODING 39
SWIDTH 360 0
DWIDTH 6 0
BBX 1 3 2 5
BITMAP
80
80
80
ENDCHAR
STARTCHAR 0028
ENCODING 40
SWIDTH 360 0
DWIDTH 6 0
BBX 3 9 1 -1
BITMAP
20
40
80
80
80
80
80
40
20
ENDCHAR
STARTCHAR 0029
ENCODING 41
SWIDTH 360 0
DWIDTH 6 0
BBX 3 9 1 -1
BITMAP
80
40
20
20
20
20
20
40
80
ENDCHAR
STARTCHAR 002A
ENCODING 42
SWIDTH 360 0
DWIDTH 6 0
BBX 5 5 0 1
BITMAP
20
A8
70
A8
20
ENDCHAR
STARTCHAR 002B
ENCODING 43
SWIDTH 360 0
DWIDTH 6 0
BBX 5 5 0 1
BITMAP
20
20
F8
20
20
ENDCHAR
STARTCHAR 002C
ENCODING 44
SWIDTH 360 0
DWIDTH 6 0
BBX 2 2 1 -1
BITMAP
40
80
ENDCHAR
STARTCHAR 002D
ENCODING 45
SWIDTH 360 0
DWIDTH 6 0
BBX 5 1 0 3
BITMAP
F8
ENDCHAR
STARTCHAR 002E
ENCODING 46
SWIDTH 360 0
DWIDTH 6 0
BBX 1 1 2 0
BITMAP
80
ENDCHAR
STARTCHAR 002F
ENCODING 47
SWIDTH 360 0
DWIDTH 6 0
BBX 5 9 0 -1
BITMAP
08
08
10
10
20
20
40
40
80
ENDCHAR
STARTCHAR 0030
ENCODING 48
SWIDTH 360 0
DWIDTH 6 0
BBX 5 7 0 0
BITMAP
70
88
88
A8
88
88
70
ENDCHAR
STARTCHAR 0031
ENCODING 49
SWIDTH 360 0
DWIDTH 6 0
BBX 3 7 1 0
BITMAP
40
C0
40
40
40
40
E0
ENDCHAR
STARTCHAR 0032
ENCODING 50
SWIDTH 360 0
DWIDTH 6 0
BBX 5 7 0 0
BITMAP
70
88
08
30
40
80
F8
ENDCHAR
STARTCHAR 0033
ENCODING 51
SWIDTH 360 0
DWIDTH 6 0
BBX 5 7 0 0
BITMAP
70
88
08
30
08
88
70
ENDCHAR
STARTCHAR 0034
ENCODING 52
SWIDTH 360 0
DWIDTH 6 0
BBX 5 7 0 0
BITMAP
10
30
50
90
F8
10
10
ENDCHAR
STARTCHAR 0035
ENCODING 53
SWIDTH 360 0
DWIDTH 6 0
BBX 5 7 0 0
BITMAP
F8
80
80
F0
08
88
70
ENDCHAR
STARTCHAR 0036
ENCODING 54
SWIDTH 360 0
DWIDTH 6 0
BBX 5 7 0 0
BITMAP
30
40
80
F0
88
88
70
ENDCHAR
STARTCHAR 0037
ENCODING 55
SWIDTH 360 0
DWIDTH 6 0
BBX 5 7 0 0
BITMAP
F8
08
10
10
20
20
40
ENDCHAR
STARTCHAR 0038
ENCODING 56
SWIDTH 360 0
DWIDTH 6 0
BBX 5 7 0 0
BITMAP
70
88
88
70
88
88
70
ENDCHAR
STARTCHAR 0039
ENCODING 57
SWIDTH 360 0
DWIDTH 6 0
BBX 5 7 0 0
BITMAP
70
88
88
78
08
10
60
ENDCHAR
STARTCHAR 003A
ENCODING 58
SWIDTH 360 0
DWIDTH 6 0
BBX 1 4 2 1
BITMAP
80
00
00
80
ENDCHAR
STARTCHAR 003B
ENCODING 59
SWIDTH 360 0
DWIDTH 6 0
BBX 2 5 1 0
BITMAP
40
00
00
40
80
ENDCHAR
STARTCHAR 003C
ENCODING 60
SWIDTH 360 0
DWIDTH 6 0
BBX 5 5 0 1
BITMAP
08
30
C0
30
08
ENDCHAR
STARTCHAR 003D
ENCODING 61
SWIDTH 360 0
DWIDTH 6 0
BBX 5 3 0 2
BITMAP
F8
00
F8
ENDCHAR
STARTCHAR 003E
ENCODING 62
SWIDTH 360 0
DWIDTH 6 0
BBX 5 5 0 1
BITMAP
80
60
18
60
80
ENDCHAR
STARTCHAR 003F
ENCODING 63
SWIDTH 360 0
DWIDTH 6 0
BBX 5 7 0 0
BITMAP
70
88
08
10
20
00
20
ENDCHAR
STARTCHAR 0040
ENCODING 64
SWIDTH 360 0
DWIDTH 6 0
BBX 6 7 0 0
BITMAP
78
84
B4
B4
BC
80
7C
ENDCHAR
STARTCHAR 0041
ENCODING 65
SWIDTH 360 0
DWIDTH 6 0
BBX 5 7 0 0
BITMAP
20
20
50
50
70
88
88
ENDCHAR
STARTCHAR 0042
ENCODING 66
SWIDTH 360 0
DWIDTH 6 0
BBX 5 7 0 0
BITMAP
F0
88
88
F0
88
88
F0
ENDCHAR
STARTCHAR 0043
ENCODING 67
SWIDTH 360 0
DWIDTH 6 0
BBX 5 7 0 0
BITMAP
70
88
80
80
80
88
70
ENDCHAR
STARTCHAR 0044
ENCODING 68
SWIDTH 360 0
DWIDTH 6 0
BBX 5 7 0 0
BITMAP
E0
90
88
88
88
90
E0
ENDCHAR
STARTCHAR 0045
ENCODING 69
SWIDTH 360 0
DWIDTH 6 0
BBX 5 7 0 0
BITMAP
F8
80
80
F0
80
80
F8
ENDCHAR
STARTCHAR 0046
ENCODING 70
SWIDTH 360 0
DWIDTH 6 0
BBX 5 7 0 0
BITMAP
F8
80
80
F0
80
80
80
ENDCHAR
STARTCHAR 0047
ENCODING 71
SWIDTH 360 0
DWIDTH 6 0
BBX 5 7 0 0
BITMAP
70
88
80
98
88
88
78
ENDCHAR
STARTCHAR 0048
ENCODING 72
SWIDTH 360 0
DWIDTH 6 0
BBX 5 7 0 0
BITMAP
88
88
88
F8
88
88
88
ENDCHAR
STARTCHAR 0049
ENCODING 73
SWIDTH 360 0
DWIDTH 6 0
BBX 3 7 1 0
BITMAP
E0
40
40
40
40
40
E0
ENDCHAR
STARTCHAR 004A
ENCODING 74
SWIDTH 360 0
DWIDTH 6 0
BBX 5 7 0 0
BITMAP
38
08
08
08
08
08
F0
ENDCHAR
STARTCHAR 004B
ENCODING 75
SWIDTH 360 0
DWIDTH 6 0
BBX 5 7 0 0
BITMAP
88
90
A0
C0
A0
90
88
ENDCHAR
STARTCHAR 004C
ENCODING 76
SWIDTH 360 0
DWIDTH 6 0
BBX 5 7 0 0
BITMAP
80
80
80
80
80
80
F8
ENDCHAR
STARTCHAR 004D
ENCODING 77
SWIDTH 360 0
DWIDTH 6 0
BBX 5 7 0 0
BITMAP
88
88
D8
D8
A8
A8
88
ENDCHAR
STARTCHAR 004E
ENCODING 78
SWIDTH 360 0
DWIDTH 6 0
BBX 5 7 0 0
BITMAP
C8
C8
A8
A8
A8
98
98
ENDCHAR
STARTCHAR 004F
ENCODING 79
SWIDTH 360 0
DWIDTH 6 0
BBX 5 7 0 0
BITMAP
70
88
88
88
88
88
70
ENDCHAR
STARTCHAR 0050
ENCODING 80
SWIDTH 360 0
DWIDTH 6 0
BBX 5 7 0 0
BITMAP
F0
88
88
F0
80
80
80
ENDCHAR
STARTCHAR 0051
ENCODING 81
SWIDTH 360 0
DWIDTH 6 0
BBX 5 7 0 0
BITMAP
70
88
88
88
88
98
78
ENDCHAR
STARTCHAR 0052
ENCODING 82
SWIDTH 360 0
DWIDTH 6 0
BBX 5 7 0 0
BITMAP
F0
88
88
F0
88
88
88
ENDCHAR
STARTCHAR 0053
ENCODING 83
SWIDTH 360 0
DWIDTH 6 0
BBX 5 7 0 0
BITMAP
70
88
80
70
08
88
70
ENDCHAR
STARTCHAR 0054
ENCODING 84
SWIDTH 360 0
DWIDTH 6 0
BBX 5 7 0 0
BITMAP
F8
20
20
20
20
20
20
ENDCHAR
STARTCHAR 0055
ENCODING 85
SWIDTH 360 0
DWIDTH 6 0
BBX 5 7 0 0
BITMAP
88
88
88
88
88
88
70
ENDCHAR
STARTCHAR 0056
ENCODING 86
SWIDTH 360 0
DWIDTH 6 0
BBX 5 7 0 0
BITMAP
88
88
88
50
50
20
20
ENDCHAR
STARTCHAR 0057
ENCODING 87
SWIDTH 360 0
DWIDTH 6 0
BBX 5 7 0 0
BITMAP
88
A8
A8
A8
50
50
50
ENDCHAR
STARTCHAR 0058
ENCODING 88
SWIDTH 360 0
DWIDTH 6 0
BBX 5 7 0 0
BITMAP
88
88
50
20
50
88
88
ENDCHAR
STARTCHAR 0059
ENCODING 89
SWIDTH 360 0
DWIDTH 6 0
BBX 5 7 0 0
BITMAP
88
88
88
70
20
20
20
ENDCHAR
STARTCHAR 005A
ENCODING 90
SWIDTH 360 0
DWIDTH 6 0
BBX 5 7 0 0
BITMAP
F8
08
10
20
40
80
F8
ENDCHAR
STARTCHAR 005B
ENCODING 91
SWIDTH 360 0
DWIDTH 6 0
BBX 3 9 1 -1
BITMAP
E0
80
80
80
80
80
80
80
E0
ENDCHAR
STARTCHAR 005C
ENCODING 92
SWIDTH 360 0
DWIDTH 6 0
BBX 5 9 0 -1
BITMAP
80
80
40
40
20
20
10
10
08
ENDCHAR
STARTCHAR 005D
ENCODING 93
SWIDTH 360 0
DWIDTH 6 0
BBX 3 9 1 -1
BITMAP
E0
20
20
20
20
20
20
20
E0
ENDCHAR
STARTCHAR 005E
ENCODING 94
SWIDTH 360 0
DWIDTH 6 0
BBX 5 3 0 4
BITMAP
20
50
88
ENDCHAR
STARTCHAR 005F
ENCODING 95
SWIDTH 360 0
DWIDTH 6 0
BBX 6 1 0 -1
BITMAP
FC
ENDCHAR
STARTCHAR 0060
ENCODING 96
SWIDTH 360 0
DWIDTH 6 0
BBX 2 2 2 5
BITMAP
80
40
ENDCHAR
STARTCHAR 0061
ENCODING 97
SWIDTH 360 0
DWIDTH 6 0
BBX 5 5 0 0
BITMAP
70
08
78
88
78
ENDCHAR
STARTCHAR 0062
ENCODING 98
SWIDTH 360 0
DWIDTH 6 0
BBX 5 8 0 0
BITMAP
80
80
80
F0
88
88
88
F0
ENDCHAR
STARTCHAR 0063
ENCODING 99
SWIDTH 360 0
DWIDTH 6 0
BBX 5 5 0 0
BITMAP
78
80
80
80
78
ENDCHAR
STARTCHAR 0064
ENCODING 100
SWIDTH 360 0
DWIDTH 6 0
BBX 5 8 0 0
BITMAP
08
08
08
78
88
88
88
78
ENDCHAR
STARTCHAR 0065
ENCODING 101
SWIDTH 360 0
DWIDTH 6 0
BBX 5 5 0 0
BITMAP
70
88
F8
80
78
ENDCHAR
STARTCHAR 0066
ENCODING 102
SWIDTH 360 0
DWIDTH 6 0
BBX 5 8 0 0
BITMAP
38
40
40
F0
40
40
40
40
ENDCHAR
STARTCHAR 0067
ENCODING 103
SWIDTH 360 0
DWIDTH 6 0
BBX 5 7 0 -2
BITMAP
70
88
88
88
78
08
70
ENDCHAR
STARTCHAR 0068
ENCODING 104
SWIDTH 360 0
DWIDTH 6 0
BBX 5 8 0 0
BITMAP
80
80
80
F0
88
88
88
88
ENDCHAR
STARTCHAR 0069
ENCODING 105
SWIDTH 360 0
DWIDTH 6 0
BBX 2 7 1 0
BITMAP
40
00
C0
40
40
40
40
ENDCHAR
STARTCHAR 006A
ENCODING 106
SWIDTH 360 0
DWIDTH 6 0
BBX 4 9 0 -2
BITMAP
10
00
30
10
10
10
10
10
E0
ENDCHAR
STARTCHAR 006B
ENCODING 107
SWIDTH 360 0
DWIDTH 6 0
BBX 4 8 1 0
BITMAP
80
80
80
90
A0
C0
A0
90
ENDCHAR
STARTCHAR 006C
ENCODING 108
SWIDTH 360 0
DWIDTH 6 0
BBX 2 8 1 0
BITMAP
C0
40
40
40
40
40
40
40
ENDCHAR
STARTCHAR 006D
ENCODING 109
SWIDTH 360 0
DWIDTH 6 0
BBX 5 5 0 0
BITMAP
D0
A8
A8
A8
A8
ENDCHAR
STARTCHAR 006E
ENCODING 110
SWIDTH 360 0
DWIDTH 6 0
BBX 5 5 0 0
BITMAP
F0
88
88
88
88
ENDCHAR
STARTCHAR 006F
ENCODING 111
SWIDTH 360 0
DWIDTH 6 0
BBX 5 5 0 0
BITMAP
70
88
88
88
70
ENDCHAR
STARTCHAR 0070
ENCODING 112
SWIDTH 360 0
DWIDTH 6 0
BBX 5 7 0 -2
BITMAP
F0
88
88
88
F0
80
80
ENDCHAR
STARTCHAR 0071
ENCODING 113
SWIDTH 360 0
DWIDTH 6 0
BBX 5 7 0 -2
BITMAP
78
88
88
88
78
08
08
ENDCHAR
STARTCHAR 0072
ENCODING 114
SWIDTH 360 0
DWIDTH 6 0
BBX 5 5 0 0
BITMAP
B0
C8
80
80
80
ENDCHAR
STARTCHAR 0073
ENCODING 115
SWIDTH 360 0
DWIDTH 6 0
BBX 5 5 0 0
BITMAP
78
80
70
08
F0
ENDCHAR
STARTCHAR 0074
ENCODING 116
SWIDTH 360 0
DWIDTH 6 0
BBX 4 7 1 0
BITMAP
80
80
E0
80
80
80
70
ENDCHAR
STARTCHAR 0075
ENCODING 117
SWIDTH 360 0
DWIDTH 6 0
BBX 5 5 0 0
BITMAP
88
88
88
88
78
ENDCHAR
STARTCHAR 0076
ENCODING 118
SWIDTH 360 0
DWIDTH 6 0
BBX 5 5 0 0
BITMAP
88
88
50
50
20
ENDCHAR
STARTCHAR 0077
ENCODING 119
SWIDTH 360 0
DWIDTH 6 0
BBX 5 5 0 0
BITMAP
88
A8
A8
50
50
ENDCHAR
STARTCHAR 0078
ENCODING 120
SWIDTH 360 0
DWIDTH 6 0
BBX 5 5 0 0
BITMAP
88
50
20
50
88
ENDCHAR
STARTCHAR 0079
ENCODING 121
SWIDTH 360 0
DWIDTH 6 0
BBX 5 7 0 -2
BITMAP
88
88
88
88
78
08
70
ENDCHAR
STARTCHAR 007A
ENCODING 122
SWIDTH 360 0
DWIDTH 6 0
BBX 5 5 0 0
BITMAP
F8
10
20
40
F8
ENDCHAR
STARTCHAR 007B
ENCODING 123
SWIDTH 360 0
DWIDTH 6 0
BBX 3 9 1 -1
BITMAP
20
40
40
40
80
40
40
40
20
ENDCHAR
STARTCHAR 007C
ENCODING 124
SWIDTH 360 0
DWIDTH 6 0
BBX 1 9 2 -1
BITMAP
80
80
80
80
80
80
80
80
80
ENDCHAR
STARTCHAR 007D
ENCODING 125
SWIDTH 360 0
DWIDTH 6 0
BBX 3 9 1 -1
BITMAP
80
40
40
40
20
40
40
40
80
ENDCHAR
STARTCHAR 007E
ENCODING 126
SWIDTH 360 0
DWIDTH 6 0
BBX 6 2 0 2
BITMAP
64
98
ENDCHAR
STARTCHAR 007F
ENCODING 127
SWIDTH 360 0
DWIDTH 6 0
BBX 0 0 0 0
BITMAP
ENDCHAR
STARTCHAR 0081
ENCODING 129
SWIDTH 360 0
DWIDTH 6 0
BBX 0 0 0 0
BITMAP
ENDCHAR
STARTCHAR 0082
ENCODING 130
SWIDTH 360 0
DWIDTH 6 0
BBX 2 2 2 -1
BITMAP
40
80
ENDCHAR
STARTCHAR 0083
ENCODING 131
SWIDTH 360 0
DWIDTH 6 0
BBX 4 10 1 -2
BITMAP
30
40
40
E0
40
40
40
40
40
80
ENDCHAR
STARTCHAR 0084
ENCODING 132
SWIDTH 360 0
DWIDTH 6 0
BBX 3 2 1 -1
BITMAP
A0
A0
ENDCHAR
STARTCHAR 0085
ENCODING 133
SWIDTH 360 0
DWIDTH 6 0
BBX 5 1 0 0
BITMAP
A8
ENDCHAR
STARTCHAR 0086
ENCODING 134
SWIDTH 360 0
DWIDTH 6 0
BBX 5 9 0 -1
BITMAP
20
20
F8
20
20
20
20
20
20
ENDCHAR
STARTCHAR 0087
ENCODING 135
SWIDTH 360 0
DWIDTH 6 0
BBX 5 9 0 -1
BITMAP
20
20
F8
20
F8
20
20
20
20
ENDCHAR
STARTCHAR 0088
ENCODING 136
SWIDTH 360 0
DWIDTH 6 0
BBX 3 2 1 6
BITMAP
40
A0
ENDCHAR
STARTCHAR 0089
ENCODING 137
SWIDTH 360 0
DWIDTH 6 0
BBX 6 5 0 1
BITMAP
48
50
20
54
94
ENDCHAR
STARTCHAR 008A
ENCODING 138
SWIDTH 360 0
DWIDTH 6 0
BBX 5 8 0 0
BITMAP
50
20
00
78
80
F8
08
F0
ENDCHAR
STARTCHAR 008B
ENCODING 139
SWIDTH 360 0
DWIDTH 6 0
BBX 3 5 1 0
BITMAP
20
40
80
40
20
ENDCHAR
STARTCHAR 008C
ENCODING 140
SWIDTH 360 0
DWIDTH 6 0
BBX 6 7 0 0
BITMAP
6C
90
90
98
90
90
6C
ENDCHAR
STARTCHAR 008D
ENCODING 141
SWIDTH 360 0
DWIDTH 6 0
BBX 0 0 0 0
BITMAP
ENDCHAR
STARTCHAR 008E
ENCODING 142
SWIDTH 360 0
DWIDTH 6 0
BBX 5 8 0 0
BITMAP
50
20
00
F8
10
20
40
F8
ENDCHAR
STARTCHAR 008F
ENCODING 143
SWIDTH 360 0
DWIDTH 6 0
BBX 0 0 0 0
BITMAP
ENDCHAR
STARTCHAR 0090
ENCODING 144
SWIDTH 360 0
DWIDTH 6 0
BBX 0 0 0 0
BITMAP
ENDCHAR
STARTCHAR 0091
ENCODING 145
SWIDTH 360 0
DWIDTH 6 0
BBX 2 3 2 5
BITMAP
80
80
40
ENDCHAR
STARTCHAR 0092
ENCODING 146
SWIDTH 360 0
DWIDTH 6 0
BBX 2 3 2 5
BITMAP
40
40
80
ENDCHAR
STARTCHAR 0093
ENCODING 147
SWIDTH 360 0
DWIDTH 6 0
BBX 4 3 1 5
BITMAP
A0
A0
50
ENDCHAR
STARTCHAR 0094
ENCODING 148
SWIDTH 360 0
DWIDTH 6 0
BBX 4 3 1 5
BITMAP
50
50
A0
ENDCHAR
STARTCHAR 0095
ENCODING 149
SWIDTH 360 0
DWIDTH 6 0
BBX 2 2 2 2
BITMAP
C0
C0
ENDCHAR
STARTCHAR 0096
ENCODING 150
SWIDTH 360 0
DWIDTH 6 0
BBX 5 1 0 2
BITMAP
F8
ENDCHAR
STARTCHAR 0097
ENCODING 151
SWIDTH 360 0
DWIDTH 6 0
BBX 6 1 0 2
BITMAP
FC
ENDCHAR
STARTCHAR 0098
ENCODING 152
SWIDTH 360 0
DWIDTH 6 0
BBX 4 2 1 2
BITMAP
50
A0
ENDCHAR
STARTCHAR 0099
ENCODING 153
SWIDTH 360 0
DWIDTH 6 0
BBX 6 4 0 1
BITMAP
FC
5C
54
54
ENDCHAR
STARTCHAR 009A
ENCODING 154
SWIDTH 360 0
DWIDTH 6 0
BBX 5 8 0 0
BITMAP
50
20
00
78
80
70
08
F0
ENDCHAR
STARTCHAR 009B
ENCODING 155
SWIDTH 360 0
DWIDTH 6 0
BBX 3 5 2 0
BITMAP
80
40
20
40
80
ENDCHAR
STARTCHAR 009C
ENCODING 156
SWIDTH 360 0
DWIDTH 6 0
BBX 6 5 0 0
BITMAP
6C
90
98
90
6C
ENDCHAR
STARTCHAR 009D
ENCODING 157
SWIDTH 360 0
DWIDTH 6 0
BBX 0 0 0 0
BITMAP
ENDCHAR
STARTCHAR 009E
ENCODING 158
SWIDTH 360 0
DWIDTH 6 0
BBX 5 8 0 0
BITMAP
50
20
00
F8
10
20
40
F8
ENDCHAR
STARTCHAR 009F
ENCODING 159
SWIDTH 360 0
DWIDTH 6 0
BBX 5 8 0 0
BITMAP
50
00
88
88
88
70
20
20
ENDCHAR
STARTCHAR 00A0
ENCODING 160
SWIDTH 360 0
DWIDTH 6 0
BBX 0 0 0 0
BITMAP
ENDCHAR
STARTCHAR 00A1
ENCODING 161
SWIDTH 360 0
DWIDTH 6 0
BBX 1 7 2 0
BITMAP
80
00
80
80
80
80
80
ENDCHAR
STARTCHAR 00A2
ENCODING 162
SWIDTH 360 0
DWIDTH 6 0
BBX 4 6 1 0
BITMAP
20
70
A0
A0
70
20
ENDCHAR
STARTCHAR 00A3
ENCODING 163
SWIDTH 360 0
DWIDTH 6 0
BBX 5 8 0 0
BITMAP
18
20
20
78
20
40
80
F8
ENDCHAR
STARTCHAR 00A4
ENCODING 164
SWIDTH 360 0
DWIDTH 6 0
BBX 6 6 0 0
BITMAP
84
78
48
48
78
84
ENDCHAR
STARTCHAR 00A5
ENCODING 165
SWIDTH 360 0
DWIDTH 6 0
BBX 5 7 0 0
BITMAP
88
88
70
20
F8
20
20
ENDCHAR
STARTCHAR 00A6
ENCODING 166
SWIDTH 360 0
DWIDTH 6 0
BBX 1 9 2 -1
BITMAP
80
80
80
80
00
80
80
80
80
ENDCHAR
STARTCHAR 00A7
ENCODING 167
SWIDTH 360 0
DWIDTH 6 0
BBX 5 10 0 -2
BITMAP
18
20
20
70
88
88
70
20
20
C0
ENDCHAR
STARTCHAR 00A8
ENCODING 168
SWIDTH 360 0
DWIDTH 6 0
BBX 3 1 1 6
BITMAP
A0
ENDCHAR
STARTCHAR 00A9
ENCODING 169
SWIDTH 360 0
DWIDTH 6 0
BBX 6 7 0 0
BITMAP
78
84
B4
A4
B4
84
78
ENDCHAR
STARTCHAR 00AA
ENCODING 170
SWIDTH 360 0
DWIDTH 6 0
BBX 3 5 1 3
BITMAP
40
20
60
A0
60
ENDCHAR
STARTCHAR 00AB
ENCODING 171
SWIDTH 360 0
DWIDTH 6 0
BBX 6 5 0 0
BITMAP
24
48
90
48
24
ENDCHAR
STARTCHAR 00AC
ENCODING 172
SWIDTH 360 0
DWIDTH 6 0
BBX 4 4 1 0
BITMAP
F0
10
10
10
ENDCHAR
STARTCHAR 00AD
ENCODING 173
SWIDTH 360 0
DWIDTH 6 0
BBX 0 0 0 0
BITMAP
ENDCHAR
STARTCHAR 00AE
ENCODING 174
SWIDTH 360 0
DWIDTH 6 0
BBX 6 7 0 0
BITMAP
78
84
94
A4
A4
84
78
ENDCHAR
STARTCHAR 00AF
ENCODING 175
SWIDTH 360 0
DWIDTH 6 0
BBX 5 1 0 6
BITMAP
F8
ENDCHAR
STARTCHAR 00B0
ENCODING 176
SWIDTH 360 0
DWIDTH 6 0
BBX 3 3 1 4
BITMAP
40
A0
40
ENDCHAR
STARTCHAR 00B1
ENCODING 177
SWIDTH 360 0
DWIDTH 6 0
BBX 5 6 0 0
BITMAP
20
20
F8
20
20
F8
ENDCHAR
STARTCHAR 00B2
ENCODING 178
SWIDTH 360 0
DWIDTH 6 0
BBX 3 5 1 3
BITMAP
C0
20
40
80
E0
ENDCHAR
STARTCHAR 00B3
ENCODING 179
SWIDTH 360 0
DWIDTH 6 0
BBX 3 5 1 3
BITMAP
C0
20
C0
20
C0
ENDCHAR
STARTCHAR 00B4
ENCODING 180
SWIDTH 360 0
DWIDTH 6 0
BBX 2 2 2 6
BITMAP
40
80
ENDCHAR
STARTCHAR 00B5
ENCODING 181
SWIDTH 360 0
DWIDTH 6 0
BBX 6 7 0 -2
BITMAP
48
48
48
48
74
40
80
ENDCHAR
STARTCHAR 00B6
ENCODING 182
SWIDTH 360 0
DWIDTH 6 0
BBX 6 9 0 -2
BITMAP
7C
E8
E8
68
28
28
28
28
28
ENDCHAR
STARTCHAR 00B7
ENCODING 183
SWIDTH 360 0
DWIDTH 6 0
BBX 1 1 2 3
BITMAP
80
ENDCHAR
STARTCHAR 00B8
ENCODING 184
SWIDTH 360 0
DWIDTH 6 0
BBX 2 3 2 -2
BITMAP
C0
40
80
ENDCHAR
STARTCHAR 00B9
ENCODING 185
SWIDTH 360 0
DWIDTH 6 0
BBX 3 5 1 3
BITMAP
40
C0
40
40
E0
ENDCHAR
STARTCHAR 00BA
ENCODING 186
SWIDTH 360 0
DWIDTH 6 0
BBX 3 4 1 4
BITMAP
40
A0
A0
40
ENDCHAR
STARTCHAR 00BB
ENCODING 187
SWIDTH 360 0
DWIDTH 6 0
BBX 6 5 0 0
BITMAP
90
48
24
48
90
ENDCHAR
STARTCHAR 00BC
ENCODING 188
SWIDTH 360 0
DWIDTH 6 0
BBX 6 9 0 -1
BITMAP
08
88
90
90
24
2C
5C
44
80
ENDCHAR
STARTCHAR 00BD
ENCODING 189
SWIDTH 360 0
DWIDTH 6 0
BBX 6 9 0 -1
BITMAP
08
88
90
90
2C
24
48
4C
80
ENDCHAR
STARTCHAR 00BE
ENCODING 190
SWIDTH 360 0
DWIDTH 6 0
BBX 6 9 0 -1
BITMAP
88
48
D0
50
A4
2C
5C
44
80
ENDCHAR
STARTCHAR 00BF
ENCODING 191
SWIDTH 360 0
DWIDTH 6 0
BBX 5 7 0 0
BITMAP
20
00
20
10
08
88
70
ENDCHAR
STARTCHAR 00C0
ENCODING 192
SWIDTH 360 0
DWIDTH 6 0
BBX 5 8 0 0
BITMAP
40
20
00
20
50
70
88
88
ENDCHAR
STARTCHAR 00C1
ENCODING 193
SWIDTH 360 0
DWIDTH 6 0
BBX 5 8 0 0
BITMAP
20
40
00
20
50
70
88
88
ENDCHAR
STARTCHAR 00C2
ENCODING 194
SWIDTH 360 0
DWIDTH 6 0
BBX 5 8 0 0
BITMAP
20
50
00
20
50
70
88
88
ENDCHAR
STARTCHAR 00C3
ENCODING 195
SWIDTH 360 0
DWIDTH 6 0
BBX 5 8 0 0
BITMAP
28
50
00
20
50
70
88
88
ENDCHAR
STARTCHAR 00C4
ENCODING 196
SWIDTH 360 0
DWIDTH 6 0
BBX 5 7 0 0
BITMAP
50
00
20
50
70
88
88
ENDCHAR
STARTCHAR 00C5
ENCODING 197
SWIDTH 360 0
DWIDTH 6 0
BBX 5 8 0 0
BITMAP
20
50
20
20
50
70
88
88
ENDCHAR
STARTCHAR 00C6
ENCODING 198
SWIDTH 360 0
DWIDTH 6 0
BBX 6 7 0 0
BITMAP
3C
50
50
78
90
90
9C
ENDCHAR
STARTCHAR 00C7
ENCODING 199
SWIDTH 360 0
DWIDTH 6 0
BBX 5 9 0 -2
BITMAP
70
88
80
80
80
88
70
20
40
ENDCHAR
STARTCHAR 00C8
ENCODING 200
SWIDTH 360 0
DWIDTH 6 0
BBX 5 8 0 0
BITMAP
40
20
00
F8
80
F0
80
F8
ENDCHAR
STARTCHAR 00C9
ENCODING 201
SWIDTH 360 0
DWIDTH 6 0
BBX 5 8 0 0
BITMAP
20
40
00
F8
80
F0
80
F8
ENDCHAR
STARTCHAR 00CA
ENCODING 202
SWIDTH 360 0
DWIDTH 6 0
BBX 5 8 0 0
BITMAP
20
50
00
F8
80
F0
80
F8
ENDCHAR
STARTCHAR 00CB
ENCODING 203
SWIDTH 360 0
DWIDTH 6 0
BBX 5 7 0 0
BITMAP
50
00
F8
80
F0
80
F8
ENDCHAR
STARTCHAR 00CC
ENCODING 204
SWIDTH 360 0
DWIDTH 6 0
BBX 3 8 1 0
BITMAP
80
40
00
E0
40
40
40
E0
ENDCHAR
STARTCHAR 00CD
ENCODING 205
SWIDTH 360 0
DWIDTH 6 0
BBX 3 8 1 0
BITMAP
40
80
00
E0
40
40
40
E0
ENDCHAR
STARTCHAR 00CE
ENCODING 206
SWIDTH 360 0
DWIDTH 6 0
BBX 3 8 1 0
BITMAP
40
A0
00
E0
40
40
40
E0
ENDCHAR
STARTCHAR 00CF
ENCODING 207
SWIDTH 360 0
DWIDTH 6 0
BBX 3 7 1 0
BITMAP
A0
00
E0
40
40
40
E0
ENDCHAR
STARTCHAR 00D0
ENCODING 208
SWIDTH 360 0
DWIDTH 6 0
BBX 6 7 0 0
BITMAP
70
48
44
F4
44
48
70
ENDCHAR
STARTCHAR 00D1
ENCODING 209
SWIDTH 360 0
DWIDTH 6 0
BBX 5 8 0 0
BITMAP
28
50
00
C8
A8
A8
98
98
ENDCHAR
STARTCHAR 00D2
ENCODING 210
SWIDTH 360 0
DWIDTH 6 0
BBX 5 8 0 0
BITMAP
40
20
00
70
88
88
88
70
ENDCHAR
STARTCHAR 00D3
ENCODING 211
SWIDTH 360 0
DWIDTH 6 0
BBX 5 8 0 0
BITMAP
20
40
00
70
88
88
88
70
ENDCHAR
STARTCHAR 00D4
ENCODING 212
SWIDTH 360 0
DWIDTH 6 0
BBX 5 8 0 0
BITMAP
20
50
00
70
88
88
88
70
ENDCHAR
STARTCHAR 00D5
ENCODING 213
SWIDTH 360 0
DWIDTH 6 0
BBX 5 8 0 0
BITMAP
28
50
00
70
88
88
88
70
ENDCHAR
STARTCHAR 00D6
ENCODING 214
SWIDTH 360 0
DWIDTH 6 0
BBX 5 7 0 0
BITMAP
50
00
70
88
88
88
70
ENDCHAR
STARTCHAR 00D7
ENCODING 215
SWIDTH 360 0
DWIDTH 6 0
BBX 5 5 0 1
BITMAP
88
50
20
50
88
ENDCHAR
STARTCHAR 00D8
ENCODING 216
SWIDTH 360 0
DWIDTH 6 0
BBX 6 6 0 0
BITMAP
34
48
58
68
48
B0
ENDCHAR
STARTCHAR 00D9
ENCODING 217
SWIDTH 360 0
DWIDTH 6 0
BBX 5 8 0 0
BITMAP
40
20
00
88
88
88
88
70
ENDCHAR
STARTCHAR 00DA
ENCODING 218
SWIDTH 360 0
DWIDTH 6 0
BBX 5 8 0 0
BITMAP
20
40
00
88
88
88
88
70
ENDCHAR
STARTCHAR 00DB
ENCODING 219
SWIDTH 360 0
DWIDTH 6 0
BBX 5 8 0 0
BITMAP
20
50
00
88
88
88
88
70
ENDCHAR
STARTCHAR 00DC
ENCODING 220
SWIDTH 360 0
DWIDTH 6 0
BBX 5 7 0 0
BITMAP
50
00
88
88
88
88
70
ENDCHAR
STARTCHAR 00DD
ENCODING 221
SWIDTH 360 0
DWIDTH 6 0
BBX 5 8 0 0
BITMAP
10
20
88
88
88
70
20
20
ENDCHAR
STARTCHAR 00DE
ENCODING 222
SWIDTH 360 0
DWIDTH 6 0
BBX 4 8 1 -1
BITMAP
80
80
E0
90
90
E0
80
80
ENDCHAR
STARTCHAR 00DF
ENCODING 223
SWIDTH 360 0
DWIDTH 6 0
BBX 5 8 0 -1
BITMAP
70
48
48
70
48
48
70
80
ENDCHAR
STARTCHAR 00E0
ENCODING 224
SWIDTH 360 0
DWIDTH 6 0
BBX 5 8 0 0
BITMAP
40
20
00
70
08
78
88
78
ENDCHAR
STARTCHAR 00E1
ENCODING 225
SWIDTH 360 0
DWIDTH 6 0
BBX 5 8 0 0
BITMAP
20
40
00
70
08
78
88
78
ENDCHAR
STARTCHAR 00E2
ENCODING 226
SWIDTH 360 0
DWIDTH 6 0
BBX 5 8 0 0
BITMAP
20
50
00
70
08
78
88
78
ENDCHAR
STARTCHAR 00E3
ENCODING 227
SWIDTH 360 0
DWIDTH 6 0
BBX 5 8 0 0
BITMAP
28
50
00
70
08
78
88
78
ENDCHAR
STARTCHAR 00E4
ENCODING 228
SWIDTH 360 0
DWIDTH 6 0
BBX 5 7 0 0
BITMAP
50
00
70
08
78
88
78
ENDCHAR
STARTCHAR 00E5
ENCODING 229
SWIDTH 360 0
DWIDTH 6 0
BBX 5 8 0 0
BITMAP
20
50
20
70
08
78
88
78
ENDCHAR
STARTCHAR 00E6
ENCODING 230
SWIDTH 360 0
DWIDTH 6 0
BBX 6 5 0 0
BITMAP
68
14
78
90
6C
ENDCHAR
STARTCHAR 00E7
ENCODING 231
SWIDTH 360 0
DWIDTH 6 0
BBX 5 7 0 -2
BITMAP
78
80
80
80
78
20
40
ENDCHAR
STARTCHAR 00E8
ENCODING 232
SWIDTH 360 0
DWIDTH 6 0
BBX 5 8 0 0
BITMAP
40
20
00
70
88
F8
80
78
ENDCHAR
STARTCHAR 00E9
ENCODING 233
SWIDTH 360 0
DWIDTH 6 0
BBX 5 8 0 0
BITMAP
20
40
00
70
88
F8
80
78
ENDCHAR
STARTCHAR 00EA
ENCODING 234
SWIDTH 360 0
DWIDTH 6 0
BBX 5 8 0 0
BITMAP
20
50
00
70
88
F8
80
78
ENDCHAR
STARTCHAR 00EB
ENCODING 235
SWIDTH 360 0
DWIDTH 6 0
BBX 5 7 0 0
BITMAP
50
00
70
88
F8
80
78
ENDCHAR
STARTCHAR 00EC
ENCODING 236
SWIDTH 360 0
DWIDTH 6 0
BBX 2 8 1 0
BITMAP
80
40
00
C0
40
40
40
40
ENDCHAR
STARTCHAR 00ED
ENCODING 237
SWIDTH 360 0
DWIDTH 6 0
BBX 2 8 1 0
BITMAP
40
80
00
C0
40
40
40
40
ENDCHAR
STARTCHAR 00EE
ENCODING 238
SWIDTH 360 0
DWIDTH 6 0
BBX 3 8 1 0
BITMAP
40
A0
00
C0
40
40
40
40
ENDCHAR
STARTCHAR 00EF
ENCODING 239
SWIDTH 360 0
DWIDTH 6 0
BBX 3 7 1 0
BITMAP
A0
00
C0
40
40
40
40
ENDCHAR
STARTCHAR 00F0
ENCODING 240
SWIDTH 360 0
DWIDTH 6 0
BBX 5 7 0 0
BITMAP
68
10
08
78
88
88
70
ENDCHAR
STARTCHAR 00F1
ENCODING 241
SWIDTH 360 0
DWIDTH 6 0
BBX 5 8 0 0
BITMAP
28
50
00
F0
88
88
88
88
ENDCHAR
STARTCHAR 00F2
ENCODING 242
SWIDTH 360 0
DWIDTH 6 0
BBX 5 8 0 0
BITMAP
40
20
00
70
88
88
88
70
ENDCHAR
STARTCHAR 00F3
ENCODING 243
SWIDTH 360 0
DWIDTH 6 0
BBX 5 8 0 0
BITMAP
20
40
00
70
88
88
88
70
ENDCHAR
STARTCHAR 00F4
ENCODING 244
SWIDTH 360 0
DWIDTH 6 0
BBX 5 8 0 0
BITMAP
20
50
00
70
88
88
88
70
ENDCHAR
STARTCHAR 00F5
ENCODING 245
SWIDTH 360 0
DWIDTH 6 0
BBX 5 8 0 0
BITMAP
50
A0
00
70
88
88
88
70
ENDCHAR
STARTCHAR 00F6
ENCODING 246
SWIDTH 360 0
DWIDTH 6 0
BBX 5 7 0 0
BITMAP
50
00
70
88
88
88
70
ENDCHAR
STARTCHAR 00F7
ENCODING 247
SWIDTH 360 0
DWIDTH 6 0
BBX 5 5 0 1
BITMAP
20
00
F8
00
20
ENDCHAR
STARTCHAR 00F8
ENCODING 248
SWIDTH 360 0
DWIDTH 6 0
BBX 6 6 0 0
BITMAP
34
48
58
68
48
B0
ENDCHAR
STARTCHAR 00F9
ENCODING 249
SWIDTH 360 0
DWIDTH 6 0
BBX 5 8 0 0
BITMAP
40
20
00
88
88
88
88
78
ENDCHAR
STARTCHAR 00FA
ENCODING 250
SWIDTH 360 0
DWIDTH 6 0
BBX 5 8 0 0
BITMAP
20
40
00
88
88
88
88
78
ENDCHAR
STARTCHAR 00FB
ENCODING 251
SWIDTH 360 0
DWIDTH 6 0
BBX 5 8 0 0
BITMAP
20
50
00
88
88
88
88
78
ENDCHAR
STARTCHAR 00FC
ENCODING 252
SWIDTH 360 0
DWIDTH 6 0
BBX 5 7 0 0
BITMAP
50
00
88
88
88
88
78
ENDCHAR
STARTCHAR 00FD
ENCODING 253
SWIDTH 360 0
DWIDTH 6 0
BBX 5 10 0 -2
BITMAP
20
40
00
88
88
88
88
78
08
70
ENDCHAR
STARTCHAR 00FE
ENCODING 254
SWIDTH 360 0
DWIDTH 6 0
BBX 5 9 0 -2
BITMAP
80
80
F0
88
88
88
F0
80
80
ENDCHAR
STARTCHAR 00FF
ENCODING 255
SWIDTH 360 0
DWIDTH 6 0
BBX 5 9 0 -2
BITMAP
50
00
88
88
88
88
78
08
70
ENDCHAR
STARTCHAR 20AC
ENCODING 8364
SWIDTH 360 0
DWIDTH 6 0
BBX 6 7 0 0
BITMAP
38
44
F0
40
F0
44
38
ENDCHAR
ENDFONT
